<svg width="39" height="39" viewBox="0 0 39 39" fill="none" xmlns="http://www.w3.org/2000/svg">
<path fill-rule="evenodd" clip-rule="evenodd" d="M27.2915 12.7116C27.2915 12.7116 18.6895 27.7021 18.5408 27.8362C18.0497 28.2993 17.2782 28.2751 16.8188 27.7876L11.2466 22.6443C10.7859 22.1568 10.8115 21.3769 11.3027 20.926C11.7938 20.4629 12.5653 20.4871 13.026 20.9746L17.3867 24.9966L25.1806 11.4929C25.517 10.9201 26.2616 10.7127 26.8454 11.054C27.428 11.3831 27.6278 12.1388 27.2915 12.7116ZM19.5 0C8.73112 0 0 8.72625 0 19.5C0 30.2738 8.73112 39 19.5 39C30.2689 39 39 30.2738 39 19.5C39 8.72625 30.2689 0 19.5 0Z" fill="#13B44A"/>
</svg>
