<svg width="216" height="59" viewBox="0 0 216 59" fill="none" xmlns="http://www.w3.org/2000/svg">
<path d="M115.84 17.793L111.621 41.418C111.527 41.8867 111.316 42.291 110.988 42.6309C110.66 42.9707 110.262 43.1875 109.793 43.2812C109.312 43.3633 108.855 43.3105 108.422 43.123C108 42.9355 107.666 42.6426 107.42 42.2441L99.0527 28.498L90.668 42.2441C90.4688 42.584 90.1934 42.8477 89.8418 43.0352C89.502 43.2227 89.1328 43.3164 88.7344 43.3164C88.1836 43.3164 87.6973 43.1406 87.2754 42.7891C86.8535 42.4375 86.5957 41.9805 86.502 41.418L82.248 17.793H86.8887L89.9121 34.4395L97.1191 22.9434C97.3184 22.6035 97.5879 22.3398 97.9277 22.1523C98.2793 21.9648 98.6543 21.8711 99.0527 21.8711C99.4512 21.8711 99.8203 21.9648 100.16 22.1523C100.5 22.3398 100.781 22.6035 101.004 22.9434L108.176 34.4395L111.199 17.793H115.84ZM139.201 30.291C139.201 30.9238 139.09 31.6094 138.867 32.3477C138.645 33.0742 138.281 33.7539 137.777 34.3867C137.285 35.0078 136.635 35.5293 135.826 35.9512C135.029 36.373 134.057 36.584 132.908 36.584H124.664V32.2422H132.908C133.529 32.2422 134.01 32.0547 134.35 31.6797C134.689 31.293 134.859 30.8184 134.859 30.2559C134.859 29.6582 134.666 29.1895 134.279 28.8496C133.904 28.5098 133.447 28.3398 132.908 28.3398H124.664C124.043 28.3398 123.562 28.5332 123.223 28.9199C122.883 29.2949 122.713 29.7637 122.713 30.3262V36.707C122.713 37.3164 122.9 37.791 123.275 38.1309C123.662 38.4707 124.137 38.6406 124.699 38.6406H132.908V43H124.664C124.031 43 123.346 42.8887 122.607 42.666C121.881 42.4434 121.201 42.0859 120.568 41.5938C119.947 41.0898 119.426 40.4395 119.004 39.6426C118.582 38.834 118.371 37.8555 118.371 36.707V30.291C118.371 29.6582 118.482 28.9785 118.705 28.252C118.928 27.5137 119.285 26.834 119.777 26.2129C120.281 25.5801 120.932 25.0527 121.729 24.6309C122.537 24.209 123.516 23.998 124.664 23.998H132.908C133.541 23.998 134.221 24.1094 134.947 24.332C135.686 24.5547 136.365 24.918 136.986 25.4219C137.619 25.9141 138.146 26.5645 138.568 27.373C138.99 28.1699 139.201 29.1426 139.201 30.291ZM163.23 36.584C163.23 37.0176 163.178 37.4746 163.072 37.9551C162.979 38.4355 162.826 38.916 162.615 39.3965C162.404 39.8652 162.129 40.3164 161.789 40.75C161.461 41.1836 161.057 41.5703 160.576 41.9102C160.107 42.2383 159.562 42.502 158.941 42.7012C158.32 42.9004 157.617 43 156.832 43H148.588C148.154 43 147.697 42.9531 147.217 42.8594C146.736 42.7539 146.256 42.5957 145.775 42.3848C145.307 42.1738 144.855 41.9043 144.422 41.5762C143.988 41.2363 143.602 40.832 143.262 40.3633C142.934 39.8828 142.67 39.332 142.471 38.7109C142.271 38.0781 142.172 37.3691 142.172 36.584V15.9648H146.742V36.584C146.742 37.1465 146.918 37.5977 147.27 37.9375C147.621 38.2656 148.061 38.4297 148.588 38.4297H156.832C157.406 38.4297 157.852 38.2598 158.168 37.9199C158.496 37.5801 158.66 37.1348 158.66 36.584V30.3965C158.66 29.8223 158.49 29.377 158.15 29.0605C157.811 28.7324 157.371 28.5684 156.832 28.5684H148.588V23.998H156.832C157.266 23.998 157.723 24.0508 158.203 24.1562C158.684 24.25 159.158 24.4023 159.627 24.6133C160.107 24.8242 160.564 25.0996 160.998 25.4395C161.432 25.7676 161.812 26.1719 162.141 26.6523C162.469 27.1211 162.732 27.666 162.932 28.2871C163.131 28.9082 163.23 29.6113 163.23 30.3965V36.584ZM188.086 36.584C188.086 37.0176 188.033 37.4746 187.928 37.9551C187.834 38.4355 187.682 38.916 187.471 39.3965C187.26 39.8652 186.984 40.3164 186.645 40.75C186.316 41.1836 185.912 41.5703 185.432 41.9102C184.963 42.2383 184.418 42.502 183.797 42.7012C183.176 42.9004 182.473 43 181.688 43H173.443C173.01 43 172.553 42.9531 172.072 42.8594C171.592 42.7539 171.111 42.5957 170.631 42.3848C170.162 42.1738 169.711 41.9043 169.277 41.5762C168.844 41.2363 168.457 40.832 168.117 40.3633C167.789 39.8828 167.525 39.332 167.326 38.7109C167.127 38.0781 167.027 37.3691 167.027 36.584V15.9648H171.598V36.584C171.598 37.1465 171.773 37.5977 172.125 37.9375C172.477 38.2656 172.916 38.4297 173.443 38.4297H181.688C182.262 38.4297 182.707 38.2598 183.023 37.9199C183.352 37.5801 183.516 37.1348 183.516 36.584V30.3965C183.516 29.8223 183.346 29.377 183.006 29.0605C182.666 28.7324 182.227 28.5684 181.688 28.5684H173.443V23.998H181.688C182.121 23.998 182.578 24.0508 183.059 24.1562C183.539 24.25 184.014 24.4023 184.482 24.6133C184.963 24.8242 185.42 25.0996 185.854 25.4395C186.287 25.7676 186.668 26.1719 186.996 26.6523C187.324 27.1211 187.588 27.666 187.787 28.2871C187.986 28.9082 188.086 29.6113 188.086 30.3965V36.584ZM212.941 44.8281C212.941 45.6133 212.842 46.3164 212.643 46.9375C212.443 47.5703 212.18 48.1211 211.852 48.5898C211.523 49.0703 211.143 49.4746 210.709 49.8027C210.275 50.1426 209.818 50.418 209.338 50.6289C208.869 50.8398 208.395 50.9922 207.914 51.0859C207.434 51.1914 206.977 51.2441 206.543 51.2441H198.299V46.6738H206.543C207.152 46.6738 207.609 46.5156 207.914 46.1992C208.219 45.8828 208.371 45.4258 208.371 44.8281V23.998H212.941V44.8281ZM206.543 43H198.299C197.643 43 196.939 42.8887 196.189 42.666C195.451 42.4434 194.76 42.0801 194.115 41.5762C193.471 41.0605 192.938 40.3984 192.516 39.5898C192.094 38.7695 191.883 37.7676 191.883 36.584V23.998H196.453V36.584C196.453 37.1816 196.611 37.6387 196.928 37.9551C197.244 38.2715 197.713 38.4297 198.334 38.4297H206.543V43Z" fill="#E97A32"/>
<circle cx="29.5" cy="29.5" r="29.5" fill="white"/>
<g clip-path="url(#clip0_5_30)">
<path d="M29.5 58.0167C45.2493 58.0167 58.0167 45.2493 58.0167 29.5C58.0167 13.7507 45.2493 0.983337 29.5 0.983337C13.7507 0.983337 0.983337 13.7507 0.983337 29.5C0.983337 45.2493 13.7507 58.0167 29.5 58.0167Z" fill="url(#paint0_linear_5_30)"/>
<path d="M42.0762 21.2227C39.7597 21.2227 37.8812 22.6903 37.8812 24.5011V35.4291C37.8812 36.8877 37.3573 37.994 36.4723 38.3869C36.0342 38.5856 35.5465 38.5811 35.0995 38.3734C34.2054 37.9669 33.6816 36.8741 33.6906 35.4246V27.8247C33.6906 26.0139 31.8121 23.756 29.4955 23.756C27.1789 23.756 25.3004 25.8287 25.3004 27.6395V35.4246C25.3004 36.8832 24.7766 37.9895 23.8915 38.3824C23.4535 38.5811 22.9658 38.5766 22.5187 38.3688C21.6246 37.9624 21.1008 36.8696 21.1098 35.4201V24.4921C21.1098 22.6813 19.2313 21.2137 16.9148 21.2137C14.5982 21.2137 12.7197 22.6813 12.7197 24.4921V35.402C12.6881 39.263 14.7201 42.4104 18.292 44.036C19.8364 44.7405 21.5298 45.0927 23.2187 45.0927C24.9075 45.0927 26.5467 44.754 28.064 44.0677C28.5743 43.8374 29.0484 43.5754 29.4955 43.2864C29.9245 43.5619 30.3806 43.8148 30.8638 44.036C32.4081 44.7405 34.1015 45.0927 35.7904 45.0927C37.4793 45.0927 39.1185 44.754 40.6357 44.0677C44.2031 42.4646 46.2533 39.3126 46.2533 35.4201V24.4921C46.2533 22.6813 44.3747 21.2137 42.0582 21.2137L42.0762 21.2227Z" fill="white"/>
<path d="M16.987 19.9719C18.9797 19.9719 20.5951 18.3565 20.5951 16.3638C20.5951 14.3711 18.9797 12.7558 16.987 12.7558C14.9943 12.7558 13.379 14.3711 13.379 16.3638C13.379 18.3565 14.9943 19.9719 16.987 19.9719Z" fill="white"/>
<path d="M29.5 22.5323C31.4927 22.5323 33.1081 20.9169 33.1081 18.9242C33.1081 16.9315 31.4927 15.3162 29.5 15.3162C27.5073 15.3162 25.892 16.9315 25.892 18.9242C25.892 20.9169 27.5073 22.5323 29.5 22.5323Z" fill="white"/>
<path d="M42.013 19.9719C44.0057 19.9719 45.6211 18.3565 45.6211 16.3638C45.6211 14.3711 44.0057 12.7558 42.013 12.7558C40.0203 12.7558 38.405 14.3711 38.405 16.3638C38.405 18.3565 40.0203 19.9719 42.013 19.9719Z" fill="white"/>
</g>
<defs>
<linearGradient id="paint0_linear_5_30" x1="58.0167" y1="29.5" x2="0.983337" y2="29.5" gradientUnits="userSpaceOnUse">
<stop offset="0.13" stop-color="#F9B337"/>
<stop offset="0.4" stop-color="#EE8B33"/>
<stop offset="0.56" stop-color="#E97A32"/>
<stop offset="1" stop-color="#DD4923"/>
</linearGradient>
<clipPath id="clip0_5_30">
<rect width="57.0333" height="57.0333" fill="white" transform="translate(0.983337 0.983337)"/>
</clipPath>
</defs>
</svg>
