<svg width="49" height="49" viewBox="0 0 49 49" fill="none" xmlns="http://www.w3.org/2000/svg">
<path d="M19.8246 23.0504C19.4401 22.666 18.9187 22.45 18.375 22.45C17.8313 22.45 17.3099 22.666 16.9254 23.0504C16.541 23.4349 16.325 23.9563 16.325 24.5C16.325 25.0437 16.541 25.5652 16.9254 25.9496L23.0504 32.0746C23.2412 32.2638 23.4674 32.4135 23.7162 32.5151C23.9649 32.6167 24.2313 32.6682 24.5 32.6667C24.7795 32.6578 25.0542 32.5916 25.3071 32.4722C25.5599 32.3528 25.7856 32.1827 25.97 31.9725L40.2617 15.6392C40.5917 15.2295 40.7508 14.7082 40.7058 14.1841C40.6609 13.6599 40.4153 13.1733 40.0204 12.8258C39.6255 12.4783 39.1116 12.2966 38.586 12.3186C38.0604 12.3407 37.5636 12.5648 37.1992 12.9442L24.5 27.6442L19.8246 23.0504Z" fill="#DD4923"/>
<path d="M42.875 22.4583C42.3335 22.4583 41.8142 22.6734 41.4313 23.0563C41.0484 23.4392 40.8333 23.9585 40.8333 24.5C40.8333 28.8318 39.1125 32.9863 36.0494 36.0494C32.9863 39.1125 28.8319 40.8333 24.5 40.8333C21.2743 40.8318 18.1214 39.8753 15.4386 38.0843C12.7558 36.2933 10.6635 33.748 9.42532 30.7695C8.18716 27.7909 7.85867 24.5124 8.48127 21.3474C9.10386 18.1824 10.6497 15.2726 12.9238 12.985C14.436 11.4525 16.2388 10.237 18.2265 9.40964C20.2142 8.5823 22.347 8.15972 24.5 8.16665C25.8055 8.17482 27.1063 8.32543 28.3792 8.61581C28.6455 8.6982 28.926 8.72516 29.2031 8.69503C29.4803 8.66489 29.7484 8.5783 29.9909 8.44059C30.2333 8.30288 30.445 8.11698 30.6128 7.89433C30.7806 7.67169 30.9011 7.41703 30.9667 7.14604C31.0324 6.87506 31.0418 6.59351 30.9945 6.31873C30.9472 6.04396 30.8441 5.78179 30.6915 5.5484C30.539 5.315 30.3403 5.11532 30.1076 4.96166C29.875 4.80801 29.6133 4.70363 29.3388 4.65498C27.7527 4.28185 26.1294 4.09007 24.5 4.08331C20.4664 4.10427 16.5293 5.31958 13.1857 7.57589C9.84207 9.8322 7.24173 13.0284 5.71283 16.7611C4.18392 20.4938 3.79497 24.5958 4.59505 28.5493C5.39513 32.5029 7.34839 36.1309 10.2083 38.9754C13.9991 42.7679 19.1379 44.9041 24.5 44.9166C29.9148 44.9166 35.1079 42.7656 38.9368 38.9367C42.7656 35.1079 44.9167 29.9148 44.9167 24.5C44.9167 23.9585 44.7016 23.4392 44.3187 23.0563C43.9358 22.6734 43.4165 22.4583 42.875 22.4583Z" fill="#DD4923"/>
</svg>
